# xmcd
#
# Track frame offsets:
#	150
#	18648
#	30278
#	48051
#	67888
#	83590
#	98679
#	111008
#	127989
#	147990
#	160340
#	172418
#	194547
#	206425
#	219375
#	236472
#	251439
#	267636
#	285023
#	298385
#	313962
#	328676
#
# Disc length: 4572 seconds
#
# Revision: 0
# Processed by: cddbd v1.5.2PL0 Copyright (c) Steve Scherf et al.
# Submitted via: EasyCDDAExtractor 16.0.9.1
#
DISCID=3f11da16
DTITLE=Dino - Grandes Exitos
DYEAR=1900
DGENRE=
TTITLE0=Mil años
TTITLE1=Luciernaga
TTITLE2=Dios mío has que me enamore
TTITLE3=Penar
TTITLE4=Que no daría
TTITLE5=Nos queremos y qué
TTITLE6=Se que te amaré
TTITLE7=Carta libre
TTITLE8=Enigma
TTITLE9=Rutina
TTITLE10=Lo peor es que te amo
TTITLE11=Me cortaré las venas
TTITLE12=Aquí
TTITLE13=Extraño tu amor
TTITLE14=Prohibido
TTITLE15=hay de...
TTITLE16=te quiero y que
TTITLE17=La canción del adiós
TTITLE18=Te vas
TTITLE19=nadie más
TTITLE20=Cuéntale
TTITLE21=Madre
EXTD=
EXTT0=
EXTT1=
EXTT2=
EXTT3=
EXTT4=
EXTT5=
EXTT6=
EXTT7=
EXTT8=
EXTT9=
EXTT10=
EXTT11=
EXTT12=
EXTT13=
EXTT14=
EXTT15=
EXTT16=
EXTT17=
EXTT18=
EXTT19=
EXTT20=
EXTT21=
PLAYORDER=
